<mxfile host="app.diagrams.net" modified="2024-05-03T18:54:07.149Z" agent="Mozilla/5.0 (Macintosh; Intel Mac OS X 10_15_7) AppleWebKit/605.1.15 (KHTML, like Gecko) Version/17.4.1 Safari/605.1.15" etag="yQU4FLv0zdRroMJNQv4Q" version="24.3.1" type="device">
  <diagram name="Page-1" id="SIS5atCp7man-q0kGYwl">
    <mxGraphModel dx="1244" dy="1573" grid="1" gridSize="10" guides="1" tooltips="1" connect="1" arrows="1" fold="1" page="1" pageScale="1" pageWidth="827" pageHeight="1169" math="0" shadow="0">
      <root>
        <mxCell id="0" />
        <mxCell id="1" parent="0" />
        <mxCell id="IWL3MhpoUM7EPWfEc5eh-1" style="edgeStyle=orthogonalEdgeStyle;rounded=0;orthogonalLoop=1;jettySize=auto;html=1;exitX=0;exitY=0.5;exitDx=0;exitDy=0;endArrow=none;endFill=0;" edge="1" parent="1" source="IWL3MhpoUM7EPWfEc5eh-5">
          <mxGeometry relative="1" as="geometry">
            <mxPoint x="190" y="640" as="targetPoint" />
          </mxGeometry>
        </mxCell>
        <mxCell id="IWL3MhpoUM7EPWfEc5eh-2" style="edgeStyle=orthogonalEdgeStyle;rounded=0;orthogonalLoop=1;jettySize=auto;html=1;exitX=0.5;exitY=1;exitDx=0;exitDy=0;entryX=0.5;entryY=0;entryDx=0;entryDy=0;endArrow=none;endFill=0;" edge="1" parent="1" source="IWL3MhpoUM7EPWfEc5eh-5" target="IWL3MhpoUM7EPWfEc5eh-8">
          <mxGeometry relative="1" as="geometry" />
        </mxCell>
        <mxCell id="IWL3MhpoUM7EPWfEc5eh-4" style="edgeStyle=orthogonalEdgeStyle;rounded=0;orthogonalLoop=1;jettySize=auto;html=1;exitX=0.25;exitY=0;exitDx=0;exitDy=0;endArrow=none;endFill=0;" edge="1" parent="1" source="IWL3MhpoUM7EPWfEc5eh-5">
          <mxGeometry relative="1" as="geometry">
            <mxPoint x="70" y="505" as="targetPoint" />
          </mxGeometry>
        </mxCell>
        <mxCell id="IWL3MhpoUM7EPWfEc5eh-5" value="" style="verticalLabelPosition=middle;verticalAlign=middle;html=1;shape=trapezoid;perimeter=trapezoidPerimeter;whiteSpace=wrap;size=0.23;arcSize=10;flipV=1;labelPosition=center;align=center;rotation=-90;" vertex="1" parent="1">
          <mxGeometry x="140" y="450" width="100" height="60" as="geometry" />
        </mxCell>
        <mxCell id="IWL3MhpoUM7EPWfEc5eh-6" style="edgeStyle=orthogonalEdgeStyle;rounded=0;orthogonalLoop=1;jettySize=auto;html=1;exitX=0;exitY=0.5;exitDx=0;exitDy=0;endArrow=none;endFill=0;" edge="1" parent="1" source="IWL3MhpoUM7EPWfEc5eh-8">
          <mxGeometry relative="1" as="geometry">
            <mxPoint x="414" y="640" as="targetPoint" />
          </mxGeometry>
        </mxCell>
        <mxCell id="IWL3MhpoUM7EPWfEc5eh-7" style="edgeStyle=orthogonalEdgeStyle;rounded=0;orthogonalLoop=1;jettySize=auto;html=1;exitX=0.75;exitY=0;exitDx=0;exitDy=0;endArrow=circlePlus;endFill=0;" edge="1" parent="1" source="IWL3MhpoUM7EPWfEc5eh-8">
          <mxGeometry relative="1" as="geometry">
            <mxPoint x="350" y="420" as="targetPoint" />
          </mxGeometry>
        </mxCell>
        <mxCell id="IWL3MhpoUM7EPWfEc5eh-8" value="" style="verticalLabelPosition=middle;verticalAlign=middle;html=1;shape=trapezoid;perimeter=trapezoidPerimeter;whiteSpace=wrap;size=0.23;arcSize=10;flipV=1;labelPosition=center;align=center;rotation=-90;" vertex="1" parent="1">
          <mxGeometry x="364" y="450" width="100" height="60" as="geometry" />
        </mxCell>
        <mxCell id="IWL3MhpoUM7EPWfEc5eh-9" style="edgeStyle=orthogonalEdgeStyle;rounded=0;orthogonalLoop=1;jettySize=auto;html=1;entryX=0;entryY=0.5;entryDx=0;entryDy=0;endArrow=none;endFill=0;exitX=0.5;exitY=1;exitDx=0;exitDy=0;" edge="1" parent="1" source="IWL3MhpoUM7EPWfEc5eh-12" target="IWL3MhpoUM7EPWfEc5eh-15">
          <mxGeometry relative="1" as="geometry">
            <Array as="points">
              <mxPoint x="710" y="158" />
              <mxPoint x="710" y="248" />
              <mxPoint x="590" y="248" />
              <mxPoint x="590" y="365" />
            </Array>
          </mxGeometry>
        </mxCell>
        <mxCell id="IWL3MhpoUM7EPWfEc5eh-10" style="edgeStyle=orthogonalEdgeStyle;rounded=0;orthogonalLoop=1;jettySize=auto;html=1;exitX=0.5;exitY=0;exitDx=0;exitDy=0;endArrow=none;endFill=0;" edge="1" parent="1" source="IWL3MhpoUM7EPWfEc5eh-12">
          <mxGeometry relative="1" as="geometry">
            <mxPoint x="460" y="320" as="targetPoint" />
            <Array as="points">
              <mxPoint x="461" y="158" />
            </Array>
          </mxGeometry>
        </mxCell>
        <mxCell id="IWL3MhpoUM7EPWfEc5eh-11" style="edgeStyle=orthogonalEdgeStyle;rounded=0;orthogonalLoop=1;jettySize=auto;html=1;exitX=0.75;exitY=0;exitDx=0;exitDy=0;endArrow=none;endFill=0;" edge="1" parent="1" source="IWL3MhpoUM7EPWfEc5eh-12">
          <mxGeometry relative="1" as="geometry">
            <mxPoint x="610" y="129" as="targetPoint" />
          </mxGeometry>
        </mxCell>
        <mxCell id="IWL3MhpoUM7EPWfEc5eh-58" style="edgeStyle=orthogonalEdgeStyle;rounded=0;orthogonalLoop=1;jettySize=auto;html=1;exitX=0;exitY=0.5;exitDx=0;exitDy=0;endArrow=none;endFill=0;" edge="1" parent="1" source="IWL3MhpoUM7EPWfEc5eh-12">
          <mxGeometry relative="1" as="geometry">
            <mxPoint x="690" y="220" as="targetPoint" />
          </mxGeometry>
        </mxCell>
        <mxCell id="IWL3MhpoUM7EPWfEc5eh-12" value="" style="verticalLabelPosition=middle;verticalAlign=middle;html=1;shape=trapezoid;perimeter=trapezoidPerimeter;whiteSpace=wrap;size=0.23;arcSize=10;flipV=1;labelPosition=center;align=center;rotation=-90;" vertex="1" parent="1">
          <mxGeometry x="617.5" y="142.5" width="115" height="30" as="geometry" />
        </mxCell>
        <mxCell id="IWL3MhpoUM7EPWfEc5eh-13" style="edgeStyle=orthogonalEdgeStyle;rounded=0;orthogonalLoop=1;jettySize=auto;html=1;exitX=0;exitY=0.25;exitDx=0;exitDy=0;endArrow=none;endFill=0;" edge="1" parent="1" source="IWL3MhpoUM7EPWfEc5eh-15">
          <mxGeometry relative="1" as="geometry">
            <mxPoint x="630" y="323" as="targetPoint" />
          </mxGeometry>
        </mxCell>
        <mxCell id="IWL3MhpoUM7EPWfEc5eh-14" style="edgeStyle=orthogonalEdgeStyle;rounded=0;orthogonalLoop=1;jettySize=auto;html=1;exitX=1;exitY=0.5;exitDx=0;exitDy=0;endArrow=none;endFill=0;" edge="1" parent="1" source="IWL3MhpoUM7EPWfEc5eh-15">
          <mxGeometry relative="1" as="geometry">
            <mxPoint x="920" y="230" as="targetPoint" />
          </mxGeometry>
        </mxCell>
        <mxCell id="IWL3MhpoUM7EPWfEc5eh-15" value="LFSR&lt;div&gt;REG&lt;/div&gt;" style="whiteSpace=wrap;html=1;aspect=fixed;" vertex="1" parent="1">
          <mxGeometry x="690" y="280" width="170" height="170" as="geometry" />
        </mxCell>
        <mxCell id="IWL3MhpoUM7EPWfEc5eh-16" style="edgeStyle=orthogonalEdgeStyle;rounded=0;orthogonalLoop=1;jettySize=auto;html=1;exitX=1;exitY=0.5;exitDx=0;exitDy=0;exitPerimeter=0;endArrow=none;endFill=0;" edge="1" parent="1" source="IWL3MhpoUM7EPWfEc5eh-19">
          <mxGeometry relative="1" as="geometry">
            <mxPoint x="450" y="105" as="targetPoint" />
          </mxGeometry>
        </mxCell>
        <mxCell id="IWL3MhpoUM7EPWfEc5eh-17" style="edgeStyle=orthogonalEdgeStyle;rounded=0;orthogonalLoop=1;jettySize=auto;html=1;exitX=0;exitY=0.25;exitDx=0;exitDy=0;exitPerimeter=0;endArrow=none;endFill=0;" edge="1" parent="1" source="IWL3MhpoUM7EPWfEc5eh-19">
          <mxGeometry relative="1" as="geometry">
            <mxPoint x="240" y="90" as="targetPoint" />
          </mxGeometry>
        </mxCell>
        <mxCell id="IWL3MhpoUM7EPWfEc5eh-18" style="edgeStyle=orthogonalEdgeStyle;rounded=0;orthogonalLoop=1;jettySize=auto;html=1;exitX=0;exitY=0.75;exitDx=0;exitDy=0;exitPerimeter=0;endArrow=none;endFill=0;" edge="1" parent="1" source="IWL3MhpoUM7EPWfEc5eh-19">
          <mxGeometry relative="1" as="geometry">
            <mxPoint x="240" y="120" as="targetPoint" />
          </mxGeometry>
        </mxCell>
        <mxCell id="IWL3MhpoUM7EPWfEc5eh-19" value="" style="verticalLabelPosition=bottom;shadow=0;dashed=0;align=center;html=1;verticalAlign=top;shape=mxgraph.electrical.logic_gates.logic_gate;operation=xor;" vertex="1" parent="1">
          <mxGeometry x="324" y="75" width="100" height="60" as="geometry" />
        </mxCell>
        <mxCell id="IWL3MhpoUM7EPWfEc5eh-20" style="edgeStyle=orthogonalEdgeStyle;rounded=0;orthogonalLoop=1;jettySize=auto;html=1;exitX=1;exitY=0.5;exitDx=0;exitDy=0;exitPerimeter=0;endArrow=none;endFill=0;" edge="1" parent="1" source="IWL3MhpoUM7EPWfEc5eh-23">
          <mxGeometry relative="1" as="geometry">
            <mxPoint x="450" y="320" as="targetPoint" />
          </mxGeometry>
        </mxCell>
        <mxCell id="IWL3MhpoUM7EPWfEc5eh-21" style="edgeStyle=orthogonalEdgeStyle;rounded=0;orthogonalLoop=1;jettySize=auto;html=1;exitX=0;exitY=0.25;exitDx=0;exitDy=0;exitPerimeter=0;endArrow=none;endFill=0;" edge="1" parent="1" source="IWL3MhpoUM7EPWfEc5eh-23">
          <mxGeometry relative="1" as="geometry">
            <mxPoint x="240" y="5" as="targetPoint" />
          </mxGeometry>
        </mxCell>
        <mxCell id="IWL3MhpoUM7EPWfEc5eh-22" style="edgeStyle=orthogonalEdgeStyle;rounded=0;orthogonalLoop=1;jettySize=auto;html=1;exitX=0;exitY=0.75;exitDx=0;exitDy=0;exitPerimeter=0;endArrow=none;endFill=0;" edge="1" parent="1" source="IWL3MhpoUM7EPWfEc5eh-23">
          <mxGeometry relative="1" as="geometry">
            <mxPoint x="240" y="35" as="targetPoint" />
          </mxGeometry>
        </mxCell>
        <mxCell id="IWL3MhpoUM7EPWfEc5eh-23" value="" style="verticalLabelPosition=bottom;shadow=0;dashed=0;align=center;html=1;verticalAlign=top;shape=mxgraph.electrical.logic_gates.logic_gate;operation=xor;" vertex="1" parent="1">
          <mxGeometry x="324" y="-10" width="100" height="60" as="geometry" />
        </mxCell>
        <mxCell id="IWL3MhpoUM7EPWfEc5eh-24" style="edgeStyle=orthogonalEdgeStyle;rounded=0;orthogonalLoop=1;jettySize=auto;html=1;exitX=1;exitY=0.5;exitDx=0;exitDy=0;exitPerimeter=0;endArrow=none;endFill=0;" edge="1" parent="1" source="IWL3MhpoUM7EPWfEc5eh-27">
          <mxGeometry relative="1" as="geometry">
            <mxPoint x="450" y="195" as="targetPoint" />
          </mxGeometry>
        </mxCell>
        <mxCell id="IWL3MhpoUM7EPWfEc5eh-25" style="edgeStyle=orthogonalEdgeStyle;rounded=0;orthogonalLoop=1;jettySize=auto;html=1;exitX=0;exitY=0.25;exitDx=0;exitDy=0;exitPerimeter=0;endArrow=none;endFill=0;" edge="1" parent="1" source="IWL3MhpoUM7EPWfEc5eh-27">
          <mxGeometry relative="1" as="geometry">
            <mxPoint x="240" y="180" as="targetPoint" />
          </mxGeometry>
        </mxCell>
        <mxCell id="IWL3MhpoUM7EPWfEc5eh-26" style="edgeStyle=orthogonalEdgeStyle;rounded=0;orthogonalLoop=1;jettySize=auto;html=1;exitX=0;exitY=0.75;exitDx=0;exitDy=0;exitPerimeter=0;endArrow=none;endFill=0;" edge="1" parent="1" source="IWL3MhpoUM7EPWfEc5eh-27">
          <mxGeometry relative="1" as="geometry">
            <mxPoint x="240" y="210" as="targetPoint" />
          </mxGeometry>
        </mxCell>
        <mxCell id="IWL3MhpoUM7EPWfEc5eh-27" value="" style="verticalLabelPosition=bottom;shadow=0;dashed=0;align=center;html=1;verticalAlign=top;shape=mxgraph.electrical.logic_gates.logic_gate;operation=xor;" vertex="1" parent="1">
          <mxGeometry x="324" y="165" width="100" height="60" as="geometry" />
        </mxCell>
        <mxCell id="IWL3MhpoUM7EPWfEc5eh-28" style="edgeStyle=orthogonalEdgeStyle;rounded=0;orthogonalLoop=1;jettySize=auto;html=1;exitX=1;exitY=0.5;exitDx=0;exitDy=0;exitPerimeter=0;endArrow=none;endFill=0;" edge="1" parent="1" source="IWL3MhpoUM7EPWfEc5eh-31">
          <mxGeometry relative="1" as="geometry">
            <mxPoint x="450" y="290" as="targetPoint" />
          </mxGeometry>
        </mxCell>
        <mxCell id="IWL3MhpoUM7EPWfEc5eh-29" style="edgeStyle=orthogonalEdgeStyle;rounded=0;orthogonalLoop=1;jettySize=auto;html=1;exitX=0;exitY=0.25;exitDx=0;exitDy=0;exitPerimeter=0;endArrow=none;endFill=0;" edge="1" parent="1" source="IWL3MhpoUM7EPWfEc5eh-31">
          <mxGeometry relative="1" as="geometry">
            <mxPoint x="240" y="275" as="targetPoint" />
          </mxGeometry>
        </mxCell>
        <mxCell id="IWL3MhpoUM7EPWfEc5eh-30" style="edgeStyle=orthogonalEdgeStyle;rounded=0;orthogonalLoop=1;jettySize=auto;html=1;exitX=0;exitY=0.75;exitDx=0;exitDy=0;exitPerimeter=0;endArrow=none;endFill=0;" edge="1" parent="1" source="IWL3MhpoUM7EPWfEc5eh-31">
          <mxGeometry relative="1" as="geometry">
            <mxPoint x="240" y="305" as="targetPoint" />
          </mxGeometry>
        </mxCell>
        <mxCell id="IWL3MhpoUM7EPWfEc5eh-31" value="" style="verticalLabelPosition=bottom;shadow=0;dashed=0;align=center;html=1;verticalAlign=top;shape=mxgraph.electrical.logic_gates.logic_gate;operation=xor;" vertex="1" parent="1">
          <mxGeometry x="324" y="260" width="100" height="60" as="geometry" />
        </mxCell>
        <mxCell id="IWL3MhpoUM7EPWfEc5eh-36" value="state" style="text;html=1;align=center;verticalAlign=middle;resizable=0;points=[];autosize=1;strokeColor=none;fillColor=none;" vertex="1" parent="1">
          <mxGeometry x="140" y="578" width="50" height="30" as="geometry" />
        </mxCell>
        <mxCell id="IWL3MhpoUM7EPWfEc5eh-37" style="edgeStyle=orthogonalEdgeStyle;rounded=0;orthogonalLoop=1;jettySize=auto;html=1;exitX=0.5;exitY=1;exitDx=0;exitDy=0;entryX=-0.012;entryY=0.618;entryDx=0;entryDy=0;entryPerimeter=0;endArrow=none;endFill=0;" edge="1" parent="1" source="IWL3MhpoUM7EPWfEc5eh-8" target="IWL3MhpoUM7EPWfEc5eh-15">
          <mxGeometry relative="1" as="geometry" />
        </mxCell>
        <mxCell id="IWL3MhpoUM7EPWfEc5eh-38" value="clk" style="text;html=1;align=center;verticalAlign=middle;resizable=0;points=[];autosize=1;strokeColor=none;fillColor=none;" vertex="1" parent="1">
          <mxGeometry x="630" y="288" width="40" height="30" as="geometry" />
        </mxCell>
        <mxCell id="IWL3MhpoUM7EPWfEc5eh-39" value="" style="endArrow=none;html=1;rounded=0;" edge="1" parent="1">
          <mxGeometry width="50" height="50" relative="1" as="geometry">
            <mxPoint x="450" y="320" as="sourcePoint" />
            <mxPoint x="460" y="320" as="targetPoint" />
          </mxGeometry>
        </mxCell>
        <mxCell id="IWL3MhpoUM7EPWfEc5eh-40" value="init_val" style="text;html=1;align=center;verticalAlign=middle;resizable=0;points=[];autosize=1;strokeColor=none;fillColor=none;" vertex="1" parent="1">
          <mxGeometry x="590" y="108" width="60" height="30" as="geometry" />
        </mxCell>
        <mxCell id="IWL3MhpoUM7EPWfEc5eh-41" value="" style="endArrow=none;html=1;rounded=0;" edge="1" parent="1">
          <mxGeometry width="50" height="50" relative="1" as="geometry">
            <mxPoint x="240" y="360" as="sourcePoint" />
            <mxPoint x="240" as="targetPoint" />
          </mxGeometry>
        </mxCell>
        <mxCell id="IWL3MhpoUM7EPWfEc5eh-42" value="" style="endArrow=none;html=1;rounded=0;" edge="1" parent="1">
          <mxGeometry width="50" height="50" relative="1" as="geometry">
            <mxPoint x="240" y="360" as="sourcePoint" />
            <mxPoint x="560" y="360" as="targetPoint" />
          </mxGeometry>
        </mxCell>
        <mxCell id="IWL3MhpoUM7EPWfEc5eh-43" value="" style="endArrow=none;html=1;rounded=0;" edge="1" parent="1">
          <mxGeometry width="50" height="50" relative="1" as="geometry">
            <mxPoint x="560" y="230" as="sourcePoint" />
            <mxPoint x="560" y="360" as="targetPoint" />
          </mxGeometry>
        </mxCell>
        <mxCell id="IWL3MhpoUM7EPWfEc5eh-44" value="" style="endArrow=none;html=1;rounded=0;" edge="1" parent="1">
          <mxGeometry width="50" height="50" relative="1" as="geometry">
            <mxPoint x="940" y="230" as="sourcePoint" />
            <mxPoint x="560" y="230" as="targetPoint" />
          </mxGeometry>
        </mxCell>
        <mxCell id="IWL3MhpoUM7EPWfEc5eh-45" value="result&amp;nbsp;" style="text;html=1;align=center;verticalAlign=middle;resizable=0;points=[];autosize=1;strokeColor=none;fillColor=none;" vertex="1" parent="1">
          <mxGeometry x="910" y="198" width="60" height="30" as="geometry" />
        </mxCell>
        <mxCell id="IWL3MhpoUM7EPWfEc5eh-46" value="[7]" style="text;html=1;align=center;verticalAlign=middle;resizable=0;points=[];autosize=1;strokeColor=none;fillColor=none;" vertex="1" parent="1">
          <mxGeometry x="410" y="-12" width="40" height="30" as="geometry" />
        </mxCell>
        <mxCell id="IWL3MhpoUM7EPWfEc5eh-47" value="[5]" style="text;html=1;align=center;verticalAlign=middle;resizable=0;points=[];autosize=1;strokeColor=none;fillColor=none;" vertex="1" parent="1">
          <mxGeometry x="410" y="78" width="40" height="30" as="geometry" />
        </mxCell>
        <mxCell id="IWL3MhpoUM7EPWfEc5eh-48" value="[3]" style="text;html=1;align=center;verticalAlign=middle;resizable=0;points=[];autosize=1;strokeColor=none;fillColor=none;" vertex="1" parent="1">
          <mxGeometry x="420" y="168" width="40" height="30" as="geometry" />
        </mxCell>
        <mxCell id="IWL3MhpoUM7EPWfEc5eh-49" value="[0]" style="text;html=1;align=center;verticalAlign=middle;resizable=0;points=[];autosize=1;strokeColor=none;fillColor=none;" vertex="1" parent="1">
          <mxGeometry x="410" y="258" width="40" height="30" as="geometry" />
        </mxCell>
        <mxCell id="IWL3MhpoUM7EPWfEc5eh-50" value="result [6]" style="text;html=1;align=center;verticalAlign=middle;resizable=0;points=[];autosize=1;strokeColor=none;fillColor=none;" vertex="1" parent="1">
          <mxGeometry x="235" y="-22" width="70" height="30" as="geometry" />
        </mxCell>
        <mxCell id="IWL3MhpoUM7EPWfEc5eh-51" value="result [7]" style="text;html=1;align=center;verticalAlign=middle;resizable=0;points=[];autosize=1;strokeColor=none;fillColor=none;" vertex="1" parent="1">
          <mxGeometry x="235" y="8" width="70" height="30" as="geometry" />
        </mxCell>
        <mxCell id="IWL3MhpoUM7EPWfEc5eh-52" value="result [4]" style="text;html=1;align=center;verticalAlign=middle;resizable=0;points=[];autosize=1;strokeColor=none;fillColor=none;" vertex="1" parent="1">
          <mxGeometry x="235" y="60" width="70" height="30" as="geometry" />
        </mxCell>
        <mxCell id="IWL3MhpoUM7EPWfEc5eh-53" value="result [7]" style="text;html=1;align=center;verticalAlign=middle;resizable=0;points=[];autosize=1;strokeColor=none;fillColor=none;" vertex="1" parent="1">
          <mxGeometry x="240" y="90" width="70" height="30" as="geometry" />
        </mxCell>
        <mxCell id="IWL3MhpoUM7EPWfEc5eh-54" value="result [2]" style="text;html=1;align=center;verticalAlign=middle;resizable=0;points=[];autosize=1;strokeColor=none;fillColor=none;" vertex="1" parent="1">
          <mxGeometry x="235" y="150" width="70" height="30" as="geometry" />
        </mxCell>
        <mxCell id="IWL3MhpoUM7EPWfEc5eh-55" value="result [7]" style="text;html=1;align=center;verticalAlign=middle;resizable=0;points=[];autosize=1;strokeColor=none;fillColor=none;" vertex="1" parent="1">
          <mxGeometry x="235" y="180" width="70" height="30" as="geometry" />
        </mxCell>
        <mxCell id="IWL3MhpoUM7EPWfEc5eh-56" value="result [7]" style="text;html=1;align=center;verticalAlign=middle;resizable=0;points=[];autosize=1;strokeColor=none;fillColor=none;" vertex="1" parent="1">
          <mxGeometry x="240" y="250" width="70" height="30" as="geometry" />
        </mxCell>
        <mxCell id="IWL3MhpoUM7EPWfEc5eh-57" value="bit" style="text;html=1;align=center;verticalAlign=middle;resizable=0;points=[];autosize=1;strokeColor=none;fillColor=none;" vertex="1" parent="1">
          <mxGeometry x="255" y="280" width="40" height="30" as="geometry" />
        </mxCell>
        <mxCell id="IWL3MhpoUM7EPWfEc5eh-59" value="rst_i" style="text;html=1;align=center;verticalAlign=middle;resizable=0;points=[];autosize=1;strokeColor=none;fillColor=none;" vertex="1" parent="1">
          <mxGeometry x="650" y="198" width="50" height="30" as="geometry" />
        </mxCell>
        <mxCell id="IWL3MhpoUM7EPWfEc5eh-60" value="" style="endArrow=none;html=1;rounded=0;" edge="1" parent="1">
          <mxGeometry width="50" height="50" relative="1" as="geometry">
            <mxPoint x="450" y="360" as="sourcePoint" />
            <mxPoint x="450" y="320" as="targetPoint" />
          </mxGeometry>
        </mxCell>
        <mxCell id="IWL3MhpoUM7EPWfEc5eh-61" value="rst_i" style="text;html=1;align=center;verticalAlign=middle;resizable=0;points=[];autosize=1;strokeColor=none;fillColor=none;" vertex="1" parent="1">
          <mxGeometry x="405" y="578" width="50" height="30" as="geometry" />
        </mxCell>
        <mxCell id="IWL3MhpoUM7EPWfEc5eh-62" value="" style="endArrow=none;html=1;rounded=0;" edge="1" parent="1">
          <mxGeometry width="50" height="50" relative="1" as="geometry">
            <mxPoint x="70" y="505" as="sourcePoint" />
            <mxPoint x="70" y="455" as="targetPoint" />
          </mxGeometry>
        </mxCell>
        <mxCell id="IWL3MhpoUM7EPWfEc5eh-63" value="" style="endArrow=none;html=1;rounded=0;entryX=0.75;entryY=0;entryDx=0;entryDy=0;endFill=0;startArrow=cross;startFill=0;" edge="1" parent="1" target="IWL3MhpoUM7EPWfEc5eh-5">
          <mxGeometry width="50" height="50" relative="1" as="geometry">
            <mxPoint x="100" y="590" as="sourcePoint" />
            <mxPoint x="360" y="450" as="targetPoint" />
            <Array as="points">
              <mxPoint x="100" y="455" />
            </Array>
          </mxGeometry>
        </mxCell>
        <mxCell id="IWL3MhpoUM7EPWfEc5eh-64" value="" style="endArrow=none;html=1;rounded=0;entryX=0.1;entryY=1.1;entryDx=0;entryDy=0;entryPerimeter=0;" edge="1" parent="1" target="IWL3MhpoUM7EPWfEc5eh-5">
          <mxGeometry width="50" height="50" relative="1" as="geometry">
            <mxPoint x="100" y="520" as="sourcePoint" />
            <mxPoint x="360" y="450" as="targetPoint" />
          </mxGeometry>
        </mxCell>
        <mxCell id="IWL3MhpoUM7EPWfEc5eh-65" value="def" style="edgeLabel;html=1;align=center;verticalAlign=middle;resizable=0;points=[];" vertex="1" connectable="0" parent="IWL3MhpoUM7EPWfEc5eh-64">
          <mxGeometry x="0.0376" y="-5" relative="1" as="geometry">
            <mxPoint y="5" as="offset" />
          </mxGeometry>
        </mxCell>
        <mxCell id="IWL3MhpoUM7EPWfEc5eh-66" value="s=10" style="text;html=1;align=center;verticalAlign=middle;resizable=0;points=[];autosize=1;strokeColor=none;fillColor=none;" vertex="1" parent="1">
          <mxGeometry x="120" y="480" width="50" height="30" as="geometry" />
        </mxCell>
        <mxCell id="IWL3MhpoUM7EPWfEc5eh-67" value="s=00" style="text;html=1;align=center;verticalAlign=middle;resizable=0;points=[];autosize=1;strokeColor=none;fillColor=none;" vertex="1" parent="1">
          <mxGeometry x="105" y="428" width="50" height="30" as="geometry" />
        </mxCell>
        <mxCell id="IWL3MhpoUM7EPWfEc5eh-68" value="" style="endArrow=none;html=1;rounded=0;entryX=0.62;entryY=1.033;entryDx=0;entryDy=0;entryPerimeter=0;" edge="1" parent="1" target="IWL3MhpoUM7EPWfEc5eh-5">
          <mxGeometry width="50" height="50" relative="1" as="geometry">
            <mxPoint x="100" y="470" as="sourcePoint" />
            <mxPoint x="360" y="440" as="targetPoint" />
          </mxGeometry>
        </mxCell>
        <mxCell id="IWL3MhpoUM7EPWfEc5eh-69" value="s=01" style="edgeLabel;html=1;align=center;verticalAlign=middle;resizable=0;points=[];" vertex="1" connectable="0" parent="IWL3MhpoUM7EPWfEc5eh-68">
          <mxGeometry x="0.1129" y="8" relative="1" as="geometry">
            <mxPoint as="offset" />
          </mxGeometry>
        </mxCell>
        <mxCell id="IWL3MhpoUM7EPWfEc5eh-71" style="edgeStyle=orthogonalEdgeStyle;rounded=0;orthogonalLoop=1;jettySize=auto;html=1;exitX=1;exitY=0.5;exitDx=0;exitDy=0;endArrow=none;endFill=0;" edge="1" parent="1" source="IWL3MhpoUM7EPWfEc5eh-70">
          <mxGeometry relative="1" as="geometry">
            <mxPoint x="940" y="585" as="targetPoint" />
          </mxGeometry>
        </mxCell>
        <mxCell id="IWL3MhpoUM7EPWfEc5eh-72" style="edgeStyle=orthogonalEdgeStyle;rounded=0;orthogonalLoop=1;jettySize=auto;html=1;exitX=0;exitY=0;exitDx=0;exitDy=0;endArrow=none;endFill=0;" edge="1" parent="1" source="IWL3MhpoUM7EPWfEc5eh-70">
          <mxGeometry relative="1" as="geometry">
            <mxPoint x="700" y="557" as="targetPoint" />
          </mxGeometry>
        </mxCell>
        <mxCell id="IWL3MhpoUM7EPWfEc5eh-73" style="edgeStyle=orthogonalEdgeStyle;rounded=0;orthogonalLoop=1;jettySize=auto;html=1;exitX=0;exitY=1;exitDx=0;exitDy=0;endArrow=cross;endFill=0;" edge="1" parent="1" source="IWL3MhpoUM7EPWfEc5eh-70">
          <mxGeometry relative="1" as="geometry">
            <mxPoint x="740" y="640" as="targetPoint" />
          </mxGeometry>
        </mxCell>
        <mxCell id="IWL3MhpoUM7EPWfEc5eh-70" value="&lt;font style=&quot;font-size: 24px;&quot;&gt;!=&lt;/font&gt;" style="ellipse;whiteSpace=wrap;html=1;aspect=fixed;" vertex="1" parent="1">
          <mxGeometry x="780" y="545" width="80" height="80" as="geometry" />
        </mxCell>
        <mxCell id="IWL3MhpoUM7EPWfEc5eh-74" value="state" style="text;html=1;align=center;verticalAlign=middle;resizable=0;points=[];autosize=1;strokeColor=none;fillColor=none;" vertex="1" parent="1">
          <mxGeometry x="700" y="530" width="50" height="30" as="geometry" />
        </mxCell>
        <mxCell id="IWL3MhpoUM7EPWfEc5eh-75" value="busy" style="text;html=1;align=center;verticalAlign=middle;resizable=0;points=[];autosize=1;strokeColor=none;fillColor=none;" vertex="1" parent="1">
          <mxGeometry x="885" y="558" width="50" height="30" as="geometry" />
        </mxCell>
      </root>
    </mxGraphModel>
  </diagram>
</mxfile>
